<?xml version="1.0" encoding="UTF-8"?>
<svg xmlns="http://www.w3.org/2000/svg" version="1.1" xmlns:xlink="http://www.w3.org/1999/xlink" viewBox="0 0 16.583 10.444">
  <!-- Generator: Adobe Illustrator 29.0.1, SVG Export Plug-In . SVG Version: 2.1.0 Build 192)  -->
  <g isolation="isolate">
    <g id="Layer_1">
      <rect x="0" y="0" width="16.583" height="10.444" fill="#fff"/>
      <path d="M6.301,6.811l-.053-.052c-.023.021-.049.03-.081.03s-.058-.009-.08-.03c-.022-.021-.032-.051-.032-.081,0-.031.01-.059.032-.08.022-.023.048-.033.08-.033.031,0,.057.01.081.033l.053-.053c-.032-.03-.077-.057-.134-.057h0c-.053,0-.096.019-.133.057-.036.036-.055.08-.055.133,0,.05.018.095.055.133.037.036.081.056.133.056.058,0,.104-.027.134-.056h0ZM6.86,6.489c-.052,0-.097.019-.133.057-.036.036-.055.08-.055.133,0,.051.019.095.055.133.037.036.082.056.133.056.053,0,.097-.018.134-.056.036-.038.055-.082.055-.133,0-.053-.019-.097-.055-.133-.037-.037-.081-.057-.134-.057h0ZM6.86,6.565c.031,0,.058.01.08.033.023.021.034.049.034.08,0,.03-.011.06-.034.078-.023.024-.049.033-.08.033s-.058-.009-.08-.033c-.022-.019-.034-.05-.034-.078,0-.031.011-.059.034-.08.022-.023.049-.033.08-.033h0ZM7.461,6.483v.383h.075v-.157l.108.146.107-.146v.157h.074v-.383l-.181.25-.183-.25ZM8.252,6.866h.076v-.116h.055c.037,0,.067-.011.092-.035.025-.025.039-.055.039-.093,0-.035-.014-.065-.039-.091-.025-.027-.056-.039-.092-.039h-.13v.374ZM8.438,6.622c0,.031-.025.057-.056.057h-.055v-.113h.055c.031,0,.056.026.056.057h0ZM8.836,6.866h.08l.025-.057h.128l.024.057h.082l-.171-.379-.168.379ZM8.972,6.742l.032-.077.036.077h-.068ZM9.587,6.483v.383h.075v-.209l.225.214v-.382h-.076v.209l-.224-.215ZM10.299,6.492l.116.213v.161h.072v-.161l.116-.213h-.085l-.065.128-.068-.128h-.086Z" fill="#141515"/>
      <image width="15" height="2" transform="translate(2.011 7.047)" xlink:href="1114 [преобразованный]-1.png" mix-blend-mode="multiply" opacity=".5"/>
      <g>
        <path d="M6.17,5.403c0,.135-.111.24-.246.24-.135,0-.247-.105-.247-.24s.111-.241.247-.241c.134,0,.246.106.246.241Z" fill="#ea3118" fill-rule="evenodd"/>
        <path d="M4.983,6.452c-.097.045-.074-.259-.07-.284.067-.566.742-2.337,1.229-2.626.222-.132.403.024.456.256.032.14.048.4.074.563.074.459.207,1.162.755,1.253.44.072,1.386-.259,1.843-.374,1.006-.256,2.118-.344,3.059.184.11.062.117.062.205.152-.122-.013-.132-.022-.246-.058-.973-.3-1.712-.264-2.679.016-.577.166-1.398.518-1.962.559-1.185.087-1.367-1.143-1.415-2.046-.003-.04-.006-.074-.009-.107-.113.125-.27.361-.311.427-.198.313-1.001,1.786-.929,2.084h0ZM6.31,3.867s.007-.002.012-.003c-.004,0-.007.001-.012.003h0Z" fill="#ea3118" fill-rule="evenodd"/>
      </g>
    </g>
  </g>
</svg>